<svg width="497" height="497" viewBox="0 0 497 497" fill="none" xmlns="http://www.w3.org/2000/svg">
<g clip-path="url(#clip0)">
<path d="M488.007 348.111V51.903C496.826 45.318 498.637 32.831 492.053 24.012C488.275 18.952 482.322 15.982 476.007 16.007H20.007C9.00101 15.964 0.0440096 24.851 0.00100957 35.857C-0.0239904 42.172 2.94601 48.125 8.00601 51.903V348.111C-0.812991 354.696 -2.62399 367.183 3.96001 376.002C7.73801 381.062 13.691 384.032 20.006 384.007H118.118L66.19 435.871C56.814 445.249 56.816 460.451 66.194 469.827C75.572 479.203 90.774 479.201 100.15 469.823L184.95 384.943C185.193 384.649 185.412 384.336 185.606 384.007H224.006V456.007C224.006 469.262 234.751 480.007 248.006 480.007C261.261 480.007 272.006 469.262 272.006 456.007V384.007H310.446C310.627 384.334 310.833 384.647 311.062 384.943L395.862 469.823C405.24 479.199 420.442 479.197 429.818 469.819C439.194 460.441 439.192 445.239 429.814 435.863L377.894 384.007H476.006C487.012 384.05 495.969 375.163 496.011 364.157C496.037 357.842 493.067 351.889 488.007 348.111ZM88.807 458.511C85.63 461.518 80.656 461.518 77.479 458.511C74.353 455.389 74.35 450.323 77.473 447.197C77.475 447.195 77.477 447.193 77.479 447.191L140.759 384.007H163.263L88.807 458.511ZM256.007 456.007C256.007 460.425 252.425 464.007 248.007 464.007C243.589 464.007 240.007 460.425 240.007 456.007V384.007H256.007V456.007ZM418.511 447.207C421.639 450.327 421.646 455.393 418.525 458.521C418.52 458.526 418.515 458.531 418.511 458.535C415.336 461.541 410.366 461.541 407.191 458.535L332.751 384.007H355.255L418.511 447.207ZM476.007 368.007H20.007C17.798 368.007 16.007 366.216 16.007 364.007C16.007 361.798 17.798 360.007 20.007 360.007H476.007C478.216 360.007 480.007 361.798 480.007 364.007C480.007 366.216 478.216 368.007 476.007 368.007ZM24.007 344.007V56.007H472.007V344.007H24.007ZM476.007 40.007H20.007C17.798 40.007 16.007 38.216 16.007 36.007C16.007 33.798 17.798 32.007 20.007 32.007H476.007C478.216 32.007 480.007 33.798 480.007 36.007C480.007 38.216 478.216 40.007 476.007 40.007Z" fill="black"/>
<rect x="32.5" y="82.5" width="95" height="103" rx="8.5" stroke="black" stroke-width="3"/>
<rect x="144.5" y="83.5" width="95" height="163" rx="8.5" stroke="black" stroke-width="3"/>
<rect x="256.5" y="82.5" width="95" height="117" rx="8.5" stroke="black" stroke-width="3"/>
<rect x="368.5" y="83.5" width="95" height="102" rx="8.5" stroke="black" stroke-width="3"/>
<rect x="32.5" y="263.5" width="95" height="86" rx="8.5" stroke="black" stroke-width="3"/>
<rect x="144.5" y="264.5" width="95" height="85" rx="8.5" stroke="black" stroke-width="3"/>
<rect x="256.5" y="263.5" width="95" height="86" rx="8.5" stroke="black" stroke-width="3"/>
<rect x="368.5" y="264.5" width="95" height="85" rx="8.5" stroke="black" stroke-width="3"/>
</g>
<defs>
<clipPath id="clip0">
<rect width="496.014" height="496.014" fill="white"/>
</clipPath>
</defs>
</svg>
