<svg width="500" height="500" viewBox="0 0 500 500" fill="none" xmlns="http://www.w3.org/2000/svg">
<path d="M150.9 315.976H58.6722C53.1494 315.976 48.6722 311.499 48.6722 305.976V145.806C48.6722 140.283 53.1494 135.806 58.6722 135.806H150.9C156.423 135.806 160.9 140.283 160.9 145.806V305.976C160.9 311.499 156.423 315.976 150.9 315.976Z" stroke="black" stroke-linejoin="round"/>
<path d="M296.002 406.061H202.641C197.118 406.061 192.641 401.583 192.641 396.061V147.283C192.641 141.76 197.118 137.283 202.641 137.283H296.002C301.525 137.283 306.002 141.76 306.002 147.283V396.061C306.002 401.583 301.525 406.061 296.002 406.061Z" stroke="black" stroke-linejoin="round"/>
<path d="M439.971 317.453H347.744C342.221 317.453 337.744 312.975 337.744 307.453V147.283C337.744 141.76 342.221 137.283 347.744 137.283H439.971C445.494 137.283 449.971 141.76 449.971 147.283V307.453C449.971 312.975 445.494 317.453 439.971 317.453Z" stroke="black" stroke-linejoin="round"/>
<path d="M25.5 33V466.04C25.5 469.077 27.9624 471.54 31 471.54H466.909C469.946 471.54 472.409 469.077 472.409 466.04V33C472.409 29.9624 469.946 27.5 466.909 27.5H31C27.9624 27.5 25.5 29.9624 25.5 33Z" stroke="black" stroke-linejoin="round"/>
<path d="M26 78.5219H473.479" stroke="black"/>
</svg>
