<svg width="500" height="500" viewBox="0 0 500 500" fill="none" xmlns="http://www.w3.org/2000/svg">
<g clip-path="url(#clip0)">
<rect x="202.908" y="100.5" width="79.9959" height="140.36" rx="6.5" stroke="black" stroke-width="7"/>
<path d="M87 100.5H153.996C157.586 100.5 160.496 103.41 160.496 107V234.36C160.496 237.95 157.586 240.86 153.996 240.86H87C83.4102 240.86 80.5 237.95 80.5 234.36V107C80.5 103.41 83.4102 100.5 87 100.5Z" stroke="black" stroke-width="7"/>
<path d="M209.408 285.434H276.592C280.181 285.434 283.091 288.344 283.091 291.934V331.817C283.091 335.407 280.181 338.317 276.591 338.317H209.408C205.819 338.317 202.908 335.407 202.908 331.817V291.934C202.908 288.344 205.819 285.434 209.408 285.434Z" stroke="black" stroke-width="7"/>
<path d="M331.817 285.434H399C402.59 285.434 405.5 288.344 405.5 291.934V331.817C405.5 335.407 402.59 338.317 399 338.317H331.817C328.227 338.317 325.317 335.407 325.317 331.817V291.934C325.317 288.344 328.227 285.434 331.817 285.434Z" stroke="black" stroke-width="7"/>
<path d="M87 285.434H154.183C157.773 285.434 160.683 288.344 160.683 291.934V331.817C160.683 335.407 157.773 338.317 154.183 338.317H87C83.4101 338.317 80.5 335.407 80.5 331.817V291.934C80.5 288.344 83.4101 285.434 87 285.434Z" stroke="black" stroke-width="7"/>
<rect x="325.317" y="100.5" width="79.9959" height="140.36" rx="6.5" stroke="black" stroke-width="7"/>
<path d="M35.586 1V67.5326H52.2192V350.296H227.233L128.64 486.805C125.949 490.529 126.787 495.732 130.511 498.423C134.236 501.114 139.438 500.277 142.13 496.552L235.184 367.703V491.678C235.184 496.271 238.908 499.995 243.5 499.995C248.093 499.995 251.817 496.271 251.817 491.678V367.703L344.871 496.552C347.563 500.277 352.765 501.114 356.49 498.423C360.214 495.732 361.052 490.529 358.361 486.805L259.768 350.296H434.782V67.5326H451.415V1H35.586ZM418.149 333.663H68.8523V67.5326H418.149V333.663ZM434.782 50.8995H52.2192V17.6332H434.782V50.8995Z" fill="black"/>
</g>
<defs>
<clipPath id="clip0">
<rect width="500" height="500" fill="white"/>
</clipPath>
</defs>
</svg>
