<svg width="497" height="497" viewBox="0 0 497 497" fill="none" xmlns="http://www.w3.org/2000/svg">
<g clip-path="url(#clip0)">
<rect x="7.5" y="7.5" width="483.611" height="481" stroke="black" stroke-width="15" stroke-linejoin="bevel" stroke-dasharray="100 150"/>
<rect x="82.4526" y="98.1158" width="328.484" height="299.768" rx="15" stroke="black" stroke-width="10"/>
<path d="M350.304 252.066L352.489 248.5L350.304 244.932C349.938 244.337 341.149 230.151 324.075 215.935C301.365 197.03 274.612 187.036 246.704 187.036C218.804 187.036 191.985 197.025 169.146 215.921C151.974 230.13 143.085 244.305 142.716 244.902L140.485 248.5L142.716 252.098C143.085 252.695 151.974 266.87 169.146 281.079C191.985 299.975 218.804 309.964 246.704 309.964C274.612 309.964 301.365 299.97 324.075 281.065C341.149 266.849 349.938 252.663 350.304 252.066V252.066ZM314.977 270.872C294.548 287.752 271.577 296.31 246.704 296.31C221.823 296.31 198.777 287.747 178.21 270.856C167.572 262.12 160.36 253.275 156.828 248.5C160.362 243.722 167.574 234.878 178.21 226.143C198.777 209.253 221.821 200.688 246.704 200.688C271.577 200.688 294.546 209.248 314.977 226.127C325.566 234.876 332.716 243.734 336.2 248.5C332.712 253.268 325.564 262.126 314.977 270.872Z" fill="black"/>
<path d="M246.5 207.483C223.883 207.483 205.483 225.883 205.483 248.5C205.483 271.117 223.883 289.517 246.5 289.517C269.117 289.517 287.517 271.117 287.517 248.5C287.517 225.883 269.117 207.483 246.5 207.483ZM246.5 275.865C231.411 275.865 219.135 263.589 219.135 248.5C219.135 233.411 231.411 221.135 246.5 221.135C261.589 221.135 273.865 233.411 273.865 248.5C273.865 263.589 261.589 275.865 246.5 275.865Z" fill="black"/>
</g>
<defs>
<clipPath id="clip0">
<rect width="496.014" height="496.014" fill="white"/>
</clipPath>
</defs>
</svg>
