<svg width="512" height="512" viewBox="0 0 512 512" fill="none" xmlns="http://www.w3.org/2000/svg">
<g clip-path="url(#clip0)">
<path d="M151.407 419.5L162.433 412.889L231.959 282.704L257.36 258.075L280.818 282.389L345.789 412.582L356.973 419.5H387L397.959 400.988L314.992 249.742L286.285 188.897L284.012 23.8279L271.513 11.5H242.642L230.143 23.8279L227.872 188.8L198.052 249.661L115.041 400.988L126 419.5H151.407Z" fill="#15171F" stroke="#1CE7B4" stroke-width="25" stroke-linecap="square" stroke-linejoin="bevel"/>
<path d="M138.651 39H82L228.831 277.553V421.148H191.834L186.053 433.886L256.578 508L324.791 433.886L319.01 421.148H282.013V277.553L430 39H374.505L256.578 231.232L138.651 39Z" fill="#1CE7B4" stroke="#15171F" stroke-width="12" stroke-linejoin="bevel"/>
</g>
<defs>
<clipPath id="clip0">
<rect width="512" height="512" fill="white"/>
</clipPath>
</defs>
</svg>
