<svg width="300" height="300" viewBox="0 0 300 300" fill="none" xmlns="http://www.w3.org/2000/svg">
<path d="M84.0833 241.583L75.9167 228.167L120.25 146.5L59.5833 47.3333L62.5 42.6667H91.0833L94 44.4167L130.167 107.417L134.25 39.1667L143 30.4167H157.583L166.917 39.1667L170.417 107.417L207.75 44.4167L210.667 42.6667H238.083L241.583 47.3333L180 146.5L224.083 228.167L215.917 241.583H200.75L192.583 236.917L162.25 185L159.917 238.083L163.417 241.583H179.75L180.917 243.917L150.583 276.583L119.083 243.917L120.25 241.583H136.583L140.083 238.083L137.75 185L104.5 236.917L96.3333 241.583H84.0833Z" fill="#15171F" stroke="#15171F" stroke-width="4" stroke-linejoin="bevel"/>
<path d="M96.9167 236.25L100.444 234.137L135.732 168.189L150.489 153.908L164.197 168.088L197.172 234.039L200.75 236.25H215.917L219.422 230.323L177.481 154.014L162.738 122.826L161.583 39.1115L157.583 35.1667H143L139 39.1115L137.846 122.795L122.533 153.988L80.5779 230.323L84.0833 236.25H96.9167Z" fill="#15171F" stroke="#1CE7B4" stroke-width="8" stroke-linecap="square" stroke-linejoin="bevel"/>
<path d="M90.5833 45H62L136.083 165.167V237.5H117.417L114.5 243.917L150.083 281.25L184.5 243.917L181.583 237.5H162.917V165.167L237.583 45H209.583L150.083 141.833L90.5833 45Z" fill="#1CE7B4" stroke="#15171F" stroke-width="6" stroke-linejoin="bevel"/>
</svg>
